# xmcd CD database file
#
# Track frame offsets:
#	151
#	19166
#	38200
#
# Disc length: 751 seconds
#
# Revision: 0
# Processed by: cddbd v1.5.2PL0 Copyright (c) Steve Scherf et al.
# Submitted via: CDex 1.95
#
DISCID=1c02ed03
DTITLE=Lonestar - I'm Already There
DYEAR=2001
DGENRE=Country
TTITLE0=I'm Already There
TTITLE1=I'm ALready Tehre (Album Version)
TTITLE2=Amazed
EXTD=YEAR: 2001
EXTT0=
EXTT1=
EXTT2=
PLAYORDER=
